<svg width="1673" height="900" viewBox="0 0 1673 900" fill="none" xmlns="http://www.w3.org/2000/svg">
<mask id="mask0_58_511" style="mask-type:alpha" maskUnits="userSpaceOnUse" x="151" y="-352" width="1604" height="1604">
<circle cx="953" cy="450" r="802" fill="url(#paint0_radial_58_511)"/>
</mask>
<g mask="url(#mask0_58_511)">
<line x1="233" y1="-0.3" x2="1673" y2="-0.299874" stroke="#161A31" stroke-width="0.6"/>
<line x1="233" y1="112.2" x2="1673" y2="112.2" stroke="#161A31" stroke-width="0.6"/>
<line x1="233" y1="224.7" x2="1673" y2="224.7" stroke="#161A31" stroke-width="0.6"/>
<line x1="233" y1="337.2" x2="1673" y2="337.2" stroke="#161A31" stroke-width="0.6"/>
<line x1="233" y1="449.7" x2="1673" y2="449.7" stroke="#161A31" stroke-width="0.6"/>
<line x1="233" y1="562.2" x2="1673" y2="562.2" stroke="#161A31" stroke-width="0.6"/>
<line x1="233" y1="674.7" x2="1673" y2="674.7" stroke="#161A31" stroke-width="0.6"/>
<line x1="233" y1="787.2" x2="1673" y2="787.2" stroke="#161A31" stroke-width="0.6"/>
<line x1="233" y1="899.7" x2="1673" y2="899.7" stroke="#161A31" stroke-width="0.6"/>
<line x1="232.7" y1="900" x2="232.7" y2="-540" stroke="#161A31" stroke-width="0.6"/>
<line x1="343.469" y1="900" x2="343.469" y2="-540" stroke="#161A31" stroke-width="0.6"/>
<line x1="454.239" y1="900" x2="454.239" y2="-540" stroke="#161A31" stroke-width="0.6"/>
<line x1="565.008" y1="900" x2="565.008" y2="-540" stroke="#161A31" stroke-width="0.6"/>
<line x1="675.777" y1="900" x2="675.777" y2="-540" stroke="#161A31" stroke-width="0.6"/>
<line x1="786.546" y1="900" x2="786.546" y2="-540" stroke="#161A31" stroke-width="0.6"/>
<line x1="897.315" y1="900" x2="897.315" y2="-540" stroke="#161A31" stroke-width="0.6"/>
<line x1="1008.08" y1="900" x2="1008.08" y2="-540" stroke="#161A31" stroke-width="0.6"/>
<line x1="1118.85" y1="900" x2="1118.85" y2="-540" stroke="#161A31" stroke-width="0.6"/>
<line x1="1229.62" y1="900" x2="1229.62" y2="-540" stroke="#161A31" stroke-width="0.6"/>
<line x1="1340.39" y1="900" x2="1340.39" y2="-540" stroke="#161A31" stroke-width="0.6"/>
<line x1="1451.16" y1="900" x2="1451.16" y2="-540" stroke="#161A31" stroke-width="0.6"/>
<line x1="1561.93" y1="900" x2="1561.93" y2="-540" stroke="#161A31" stroke-width="0.6"/>
<line x1="1672.7" y1="900" x2="1672.7" y2="-540" stroke="#161A31" stroke-width="0.6"/>
<path d="M343.5 100.5L343.5 124.5" stroke="url(#paint1_linear_58_511)"/>
<path d="M355.5 112.5L331.5 112.5" stroke="url(#paint2_linear_58_511)"/>
<g opacity="0.47">
<rect x="565.5" y="113.5" width="109" height="110" fill="#0C0F24"/>
<rect x="565.5" y="113.5" width="109" height="110" fill="#0C0F24"/>
<rect x="565.5" y="113.5" width="109" height="110" fill="#0C0F24"/>
<rect x="565.5" y="113.5" width="109" height="110" fill="#0C0F24"/>
<rect x="565.5" y="113.5" width="109" height="110" stroke="#0C0F24"/>
</g>
<g opacity="0.47">
<rect x="1119.5" y="1.5" width="110" height="110" fill="#0C0F24"/>
<rect x="1119.5" y="1.5" width="110" height="110" fill="#0C0F24"/>
<rect x="1119.5" y="1.5" width="110" height="110" fill="#0C0F24"/>
<rect x="1119.5" y="1.5" width="110" height="110" fill="#0C0F24"/>
<rect x="1119.5" y="1.5" width="110" height="110" stroke="#0C0F24"/>
</g>
<g opacity="0.47">
<rect x="1451.5" y="225.5" width="110" height="111" fill="#0C0F24"/>
<rect x="1451.5" y="225.5" width="110" height="111" fill="#0C0F24"/>
<rect x="1451.5" y="225.5" width="110" height="111" fill="#0C0F24"/>
<rect x="1451.5" y="225.5" width="110" height="111" fill="#0C0F24"/>
<rect x="1451.5" y="225.5" width="110" height="111" stroke="#0C0F24"/>
</g>
<path d="M1451 101L1451 125" stroke="url(#paint3_linear_58_511)"/>
<path d="M1463 113L1439 113" stroke="url(#paint4_linear_58_511)"/>
</g>
<g clip-path="url(#clip0_58_511)">
<mask id="mask1_58_511" style="mask-type:luminance" maskUnits="userSpaceOnUse" x="0" y="0" width="805" height="608">
<path d="M805 0H0V608H805V0Z" fill="white"/>
</mask>
<g mask="url(#mask1_58_511)">
<g opacity="0.2" filter="url(#filter0_f_58_511)">
<path d="M-282.159 -390.853L-307 -366.012L128.807 69.7951L432.843 359.214L153.648 44.9541L-282.159 -390.853Z" fill="url(#paint5_linear_58_511)"/>
</g>
<g opacity="0.32" filter="url(#filter1_f_58_511)">
<path d="M-75.074 -380.376L-99.915 -355.535L335.892 80.2726L639.929 369.691L360.733 55.4316L-75.074 -380.376Z" fill="url(#paint6_linear_58_511)"/>
</g>
<g opacity="0.32" filter="url(#filter2_f_58_511)">
<path d="M4.43187 -487L-20.4092 -462.159L415.398 -26.3516L719.434 263.067L440.239 -51.1927L4.43187 -487Z" fill="url(#paint7_linear_58_511)"/>
</g>
</g>
</g>
<defs>
<filter id="filter0_f_58_511" x="-387" y="-470.853" width="899.843" height="910.067" filterUnits="userSpaceOnUse" color-interpolation-filters="sRGB">
<feFlood flood-opacity="0" result="BackgroundImageFix"/>
<feBlend mode="normal" in="SourceGraphic" in2="BackgroundImageFix" result="shape"/>
<feGaussianBlur stdDeviation="40" result="effect1_foregroundBlur_58_511"/>
</filter>
<filter id="filter1_f_58_511" x="-179.915" y="-460.376" width="899.844" height="910.067" filterUnits="userSpaceOnUse" color-interpolation-filters="sRGB">
<feFlood flood-opacity="0" result="BackgroundImageFix"/>
<feBlend mode="normal" in="SourceGraphic" in2="BackgroundImageFix" result="shape"/>
<feGaussianBlur stdDeviation="40" result="effect1_foregroundBlur_58_511"/>
</filter>
<filter id="filter2_f_58_511" x="-100.409" y="-567" width="899.843" height="910.067" filterUnits="userSpaceOnUse" color-interpolation-filters="sRGB">
<feFlood flood-opacity="0" result="BackgroundImageFix"/>
<feBlend mode="normal" in="SourceGraphic" in2="BackgroundImageFix" result="shape"/>
<feGaussianBlur stdDeviation="40" result="effect1_foregroundBlur_58_511"/>
</filter>
<radialGradient id="paint0_radial_58_511" cx="0" cy="0" r="1" gradientUnits="userSpaceOnUse" gradientTransform="translate(953 294.5) rotate(90) scale(957.5)">
<stop stop-color="#D9D9D9"/>
<stop offset="1" stop-color="#D9D9D9" stop-opacity="0"/>
</radialGradient>
<linearGradient id="paint1_linear_58_511" x1="343.5" y1="124.5" x2="343.5" y2="100.5" gradientUnits="userSpaceOnUse">
<stop stop-color="#C34124" stop-opacity="0"/>
<stop offset="0.50284" stop-color="#F99A85"/>
<stop offset="1" stop-color="#C34124" stop-opacity="0"/>
</linearGradient>
<linearGradient id="paint2_linear_58_511" x1="331.5" y1="112.5" x2="355.5" y2="112.5" gradientUnits="userSpaceOnUse">
<stop stop-color="#C34124" stop-opacity="0"/>
<stop offset="0.50284" stop-color="#F99A85"/>
<stop offset="1" stop-color="#C34124" stop-opacity="0"/>
</linearGradient>
<linearGradient id="paint3_linear_58_511" x1="1451" y1="125" x2="1451" y2="101" gradientUnits="userSpaceOnUse">
<stop stop-color="white" stop-opacity="0"/>
<stop offset="0.50284" stop-color="white"/>
<stop offset="1" stop-color="white" stop-opacity="0"/>
</linearGradient>
<linearGradient id="paint4_linear_58_511" x1="1439" y1="113" x2="1463" y2="113" gradientUnits="userSpaceOnUse">
<stop stop-color="white" stop-opacity="0"/>
<stop offset="0.50284" stop-color="white"/>
<stop offset="1" stop-color="white" stop-opacity="0"/>
</linearGradient>
<linearGradient id="paint5_linear_58_511" x1="-294.58" y1="-378.433" x2="141.228" y2="57.3746" gradientUnits="userSpaceOnUse">
<stop stop-color="white"/>
<stop offset="1" stop-color="#D3D8DF"/>
</linearGradient>
<linearGradient id="paint6_linear_58_511" x1="-87.4945" y1="-367.955" x2="348.313" y2="67.8521" gradientUnits="userSpaceOnUse">
<stop stop-color="white"/>
<stop offset="1" stop-color="#D3D8DF"/>
</linearGradient>
<linearGradient id="paint7_linear_58_511" x1="-7.98864" y1="-474.579" x2="427.819" y2="-38.7722" gradientUnits="userSpaceOnUse">
<stop stop-color="white"/>
<stop offset="1" stop-color="#D3D8DF"/>
</linearGradient>
<clipPath id="clip0_58_511">
<rect width="805" height="608" fill="white"/>
</clipPath>
</defs>
</svg>
