<svg width="20" height="20" viewBox="0 0 20 20" fill="none" xmlns="http://www.w3.org/2000/svg">
<g clip-path="url(#clip0_41_606)">
<path d="M12.1311 0.954902C11.5491 0.836902 10.9471 0.774902 10.3311 0.774902C5.36005 0.774902 1.33105 4.8039 1.33105 9.7749C1.33105 14.7449 5.36005 18.7749 10.3311 18.7749C15.3011 18.7749 19.3311 14.7449 19.3311 9.7749C19.3311 9.1579 19.2691 8.5559 19.1511 7.9749" stroke="white" stroke-miterlimit="10" stroke-linecap="round"/>
<path d="M10.6349 7.368C9.6769 7.368 8.8999 7.95 8.8999 8.669C8.8999 9.388 9.6769 9.971 10.6349 9.971C11.5939 9.971 12.3709 10.553 12.3709 11.272C12.3709 11.991 11.5939 12.573 10.6349 12.573M10.6349 7.368C11.3909 7.368 12.0339 7.73 12.2719 8.235M10.6349 7.368V6.5M10.6349 12.573C9.8799 12.573 9.2369 12.211 8.9989 11.706M10.6349 12.573V13.441" stroke="white" stroke-width="1.2" stroke-miterlimit="10" stroke-linecap="round"/>
<path d="M19.0679 0.800049L15.0679 4.30005M14.8999 0.818049V4.76505H18.8469" stroke="white" stroke-width="1.2" stroke-linecap="round" stroke-linejoin="round"/>
</g>
<defs>
<clipPath id="clip0_41_606">
<rect width="20" height="20" fill="white"/>
</clipPath>
</defs>
</svg>
