<svg width="23" height="24" viewBox="0 0 23 24" fill="none" xmlns="http://www.w3.org/2000/svg">
<g clip-path="url(#clip0_41_434)">
<path d="M4.5718 9.79014C4.69756 9.79014 4.81546 9.73063 5.05014 9.61273L6.93654 8.66279C7.77082 8.24284 8.18852 8.03287 8.18852 7.69938V3.51898M4.5718 9.79014C4.44604 9.79014 4.32814 9.73063 4.09346 9.61273L2.20706 8.66279C1.37278 8.24284 0.955078 8.03287 0.955078 7.69938V3.51898M4.5718 9.79014V5.60862M8.18852 3.51898C8.18852 3.18549 7.77082 2.97552 6.93654 2.55557L5.05014 1.60563C4.81546 1.48773 4.69756 1.42822 4.5718 1.42822C4.44604 1.42822 4.32814 1.48773 4.09346 1.60563L2.20706 2.55557C1.37278 2.97552 0.955078 3.18549 0.955078 3.51898M8.18852 3.51898C8.18852 3.85135 7.77082 4.06132 6.93654 4.48239L5.05014 5.43233C4.81546 5.55023 4.69756 5.60862 4.5718 5.60862M0.955078 3.51898C0.955078 3.85135 1.37278 4.06132 2.20706 4.48239L4.09346 5.43233C4.32814 5.55023 4.44604 5.60862 4.5718 5.60862" stroke="white" stroke-width="1.2576" stroke-linejoin="round"/>
<path d="M18.0044 9.79014C18.1302 9.79014 18.2481 9.73063 18.4828 9.61273L20.3692 8.66279C21.2034 8.24284 21.6211 8.03287 21.6211 7.69938V3.51898M18.0044 9.79014C17.8787 9.79014 17.7608 9.73063 17.5261 9.61273L15.6397 8.66279C14.8054 8.24284 14.3877 8.03287 14.3877 7.69938V3.51898M18.0044 9.79014V5.60862M21.6211 3.51898C21.6211 3.18549 21.2034 2.97552 20.3692 2.55557L18.4828 1.60563C18.2481 1.48773 18.1302 1.42822 18.0044 1.42822C17.8787 1.42822 17.7608 1.48773 17.5261 1.60563L15.6397 2.55557C14.8054 2.97552 14.3877 3.18549 14.3877 3.51898M21.6211 3.51898C21.6211 3.85135 21.2034 4.06132 20.3692 4.48239L18.4828 5.43233C18.2481 5.55023 18.1302 5.60862 18.0044 5.60862M14.3877 3.51898C14.3877 3.85135 14.8054 4.06132 15.6397 4.48239L17.5261 5.43233C17.7608 5.55023 17.8787 5.60862 18.0044 5.60862" stroke="white" stroke-width="1.2576" stroke-linejoin="round"/>
<path d="M10.771 5.60791H11.8051" stroke="white" stroke-width="1.2576" stroke-miterlimit="10" stroke-linecap="round"/>
<path d="M0.955078 11.8809V15.5391C0.955078 17.0067 0.955078 17.7411 1.30316 18.2677C1.45475 18.4967 1.64788 18.6921 1.87358 18.8448C2.39458 19.1974 3.12107 19.1974 4.5718 19.1974" stroke="white" stroke-width="1.2576" stroke-miterlimit="10" stroke-linecap="round"/>
<path d="M21.6211 11.8809V15.5391C21.6211 17.0067 21.6211 17.7411 21.273 18.2677C21.1214 18.4967 20.9283 18.6921 20.7026 18.8448C20.1816 19.1974 19.4551 19.1974 18.0044 19.1974" stroke="white" stroke-width="1.2576" stroke-miterlimit="10" stroke-linecap="round"/>
<path d="M11.2886 22.3321C11.4144 22.3321 11.5311 22.2737 11.7658 22.1547L13.6522 21.2048C14.4876 20.7848 14.9042 20.5749 14.9042 20.2425V16.061M11.2886 22.3321C11.1617 22.3321 11.0449 22.2737 10.8103 22.1547L8.92386 21.2048C8.08845 20.7848 7.67188 20.5749 7.67188 20.2425V16.061M11.2886 22.3321V18.1517M14.9042 16.061C14.9042 15.7286 14.4876 15.5175 13.6522 15.0976L11.7658 14.1476C11.5311 14.0297 11.4144 13.9702 11.2886 13.9702C11.1617 13.9702 11.0449 14.0297 10.8103 14.1476L8.92386 15.0976C8.08845 15.5175 7.67188 15.7286 7.67188 16.061M14.9042 16.061C14.9042 16.3933 14.4876 16.6044 13.6522 17.0244L11.7658 17.9743C11.5311 18.0922 11.4144 18.1517 11.2886 18.1517M7.67188 16.061C7.67188 16.3933 8.08845 16.6044 8.92386 17.0244L10.8103 17.9743C11.0449 18.0922 11.1617 18.1517 11.2886 18.1517" stroke="white" stroke-width="1.2576" stroke-linejoin="round"/>
</g>
<defs>
<clipPath id="clip0_41_434">
<rect width="22.4571" height="22.4571" fill="white" transform="translate(0.0712891 0.685547)"/>
</clipPath>
</defs>
</svg>
