<svg width="24" height="24" viewBox="0 0 24 24" fill="none" xmlns="http://www.w3.org/2000/svg">
<g clip-path="url(#clip0_41_458)">
<g clip-path="url(#clip1_41_458)">
<path d="M14.289 1.75778C13.6355 1.62528 12.9595 1.55566 12.2678 1.55566C6.6861 1.55566 2.16211 6.07966 2.16211 11.6614C2.16211 17.242 6.6861 21.7671 12.2678 21.7671C17.8484 21.7671 22.3735 17.242 22.3735 11.6614C22.3735 10.9686 22.3039 10.2926 22.1714 9.64023" stroke="white" stroke-width="1.12286" stroke-miterlimit="10" stroke-linecap="round"/>
<path d="M12.6093 8.95901C11.5336 8.95901 10.6611 9.61252 10.6611 10.4199C10.6611 11.2272 11.5336 11.8818 12.6093 11.8818C13.6861 11.8818 14.5586 12.5353 14.5586 13.3426C14.5586 14.15 13.6861 14.8035 12.6093 14.8035M12.6093 8.95901C13.4582 8.95901 14.1802 9.36549 14.4474 9.93253M12.6093 8.95901V7.98438M12.6093 14.8035C11.7615 14.8035 11.0395 14.397 10.7723 13.83M12.6093 14.8035V15.7781" stroke="white" stroke-width="1.34743" stroke-miterlimit="10" stroke-linecap="round"/>
<path d="M22.078 1.58398L17.5866 5.51398M17.3979 1.6042V6.03611H21.8299" stroke="white" stroke-width="1.34743" stroke-linecap="round" stroke-linejoin="round"/>
</g>
</g>
<defs>
<clipPath id="clip0_41_458">
<rect width="22.4571" height="22.4571" fill="white" transform="translate(0.66748 0.685547)"/>
</clipPath>
<clipPath id="clip1_41_458">
<rect width="22.4571" height="22.4571" fill="white" transform="translate(0.66748 0.685547)"/>
</clipPath>
</defs>
</svg>
