<svg width="23" height="24" viewBox="0 0 23 24" fill="none" xmlns="http://www.w3.org/2000/svg">
<g clip-path="url(#clip0_41_505)">
<g clip-path="url(#clip1_41_505)">
<path d="M1.47461 12.0286C1.47461 6.60297 5.87396 2.20361 11.2996 2.20361C16.7253 2.20361 21.1246 6.60297 21.1246 12.0286C21.1246 17.4543 16.7253 21.8536 11.2996 21.8536C5.87396 21.8536 1.47461 17.4543 1.47461 12.0286Z" stroke="white" stroke-width="1.12286" stroke-linejoin="round"/>
<path d="M7.61572 12.0286C7.61572 6.60297 9.2652 2.20361 11.2998 2.20361C13.3344 2.20361 14.9839 6.60297 14.9839 12.0286C14.9839 17.4543 13.3344 21.8536 11.2998 21.8536C9.2652 21.8536 7.61572 17.4543 7.61572 12.0286Z" stroke="white" stroke-width="1.12286" stroke-linejoin="round"/>
<path d="M2.08887 12.0288H20.5105" stroke="white" stroke-width="1.12286" stroke-linecap="round" stroke-linejoin="round"/>
</g>
</g>
<defs>
<clipPath id="clip0_41_505">
<rect width="22.4571" height="22.4571" fill="white" transform="translate(0.0712891 0.799805)"/>
</clipPath>
<clipPath id="clip1_41_505">
<rect width="22.4571" height="22.4571" fill="white" transform="translate(0.0712891 0.799805)"/>
</clipPath>
</defs>
</svg>
