<svg width="22" height="24" viewBox="0 0 22 24" fill="none" xmlns="http://www.w3.org/2000/svg">
<g clip-path="url(#clip0_41_529)">
<g clip-path="url(#clip1_41_529)">
<path d="M11.3671 19.3151C11.5804 19.3151 11.7781 19.2107 12.1722 19.0018L15.3487 17.3231C16.7546 16.5809 17.4563 16.2093 17.4563 15.6209V8.23473M11.3671 19.3151C11.1549 19.3151 10.9572 19.2107 10.562 19.0018L7.38656 17.3231C5.98074 16.5809 5.27783 16.2093 5.27783 15.6209V8.23473M11.3671 19.3151V11.9278M17.4563 8.23473C17.4563 7.64635 16.7546 7.27468 15.3487 6.53248L12.1722 4.8538C11.7781 4.64495 11.5804 4.54053 11.3671 4.54053C11.1549 4.54053 10.9572 4.64495 10.562 4.8538L7.38656 6.53248C5.98074 7.27468 5.27783 7.64635 5.27783 8.23473M17.4563 8.23473C17.4563 8.82198 16.7546 9.19365 15.3487 9.93585L12.1722 11.6145C11.7781 11.8234 11.5804 11.9278 11.3671 11.9278M5.27783 8.23473C5.27783 8.82198 5.98074 9.19365 7.38656 9.93585L10.562 11.6145C10.9572 11.8234 11.1549 11.9278 11.3671 11.9278" stroke="white" stroke-width="0.9432" stroke-linejoin="round"/>
<path d="M12.5755 22.0333L17.3398 19.636C19.4474 18.5749 20.5018 18.0438 20.5018 17.2039V6.65131C20.5018 5.81141 19.4474 5.28142 17.3398 4.22032L12.5755 1.8219C11.9827 1.52434 11.6862 1.375 11.3674 1.375C11.0485 1.375 10.752 1.52434 10.1592 1.8219L5.396 4.22032C3.28727 5.28142 2.23291 5.81141 2.23291 6.65131V17.2039C2.23291 18.0438 3.28727 18.5749 5.396 19.636L10.1592 22.0333C10.752 22.3309 11.0485 22.4802 11.3674 22.4802C11.6862 22.4802 11.9827 22.3309 12.5755 22.0333Z" stroke="white" stroke-width="0.9432" stroke-linejoin="round"/>
</g>
</g>
<defs>
<clipPath id="clip0_41_529">
<rect width="21.3343" height="22.4571" fill="white" transform="translate(0.66748 0.799805)"/>
</clipPath>
<clipPath id="clip1_41_529">
<rect width="21.3343" height="22.4571" fill="white" transform="translate(0.66748 0.799805)"/>
</clipPath>
</defs>
</svg>
