<svg width="21" height="24" viewBox="0 0 21 24" fill="none" xmlns="http://www.w3.org/2000/svg">
<g clip-path="url(#clip0_41_483)">
<g clip-path="url(#clip1_41_483)">
<path d="M10.5043 1.40674C7.46696 1.40674 5.49747 3.53792 3.16867 4.31382C2.22098 4.63046 1.74825 4.78766 1.55624 5.01111C1.36424 5.23344 1.30809 5.55906 1.19581 6.2092C-0.00452732 13.1709 2.62071 19.6071 8.88064 22.1122C9.55323 22.3817 9.88897 22.5165 10.5077 22.5165C11.1252 22.5165 11.461 22.3817 12.1336 22.1122C18.3935 19.6071 21.0154 13.1709 19.815 6.2092C19.7027 5.55794 19.6466 5.23344 19.4546 5.00999C19.2626 4.78766 18.7899 4.63046 17.8422 4.31382C15.5122 3.53792 13.5405 1.40674 10.5043 1.40674Z" stroke="white" stroke-width="1.12286" stroke-linecap="round" stroke-linejoin="round"/>
<path d="M6.37905 11.3203L10.6414 5.9564C10.9749 5.53645 11.6003 5.79695 11.6003 6.35614V10.5085C11.6003 10.8431 11.8451 11.1137 12.1472 11.1137H14.22C14.6916 11.1137 14.942 11.729 14.6309 12.1209L10.3686 17.4848C10.0351 17.9036 9.41076 17.6431 9.41076 17.0839V12.9327C9.41076 12.5981 9.16598 12.3264 8.86393 12.3264H6.79001C6.31954 12.3264 6.06802 11.711 6.37905 11.3203Z" stroke="white" stroke-width="1.12286" stroke-linecap="round" stroke-linejoin="round"/>
</g>
</g>
<defs>
<clipPath id="clip0_41_483">
<rect width="20.2114" height="22.4571" fill="white" transform="translate(0.263672 0.685547)"/>
</clipPath>
<clipPath id="clip1_41_483">
<rect width="20.2114" height="22.4571" fill="white" transform="translate(0.263672 0.685547)"/>
</clipPath>
</defs>
</svg>
