<svg width="23" height="22" viewBox="0 0 23 22" fill="none" xmlns="http://www.w3.org/2000/svg">
<path d="M22.5 11C22.5 13.0044 22.0111 14.85 21.0333 16.5367C20.0556 18.2233 18.7233 19.5556 17.0367 20.5333C15.35 21.5111 13.5044 22 11.5 22C9.49555 22 7.65 21.5111 5.96333 20.5333C4.27667 19.5556 2.94444 18.2233 1.96667 16.5367C0.988889 14.85 0.5 13.0044 0.5 11C0.5 8.99556 0.988889 7.15 1.96667 5.46334C2.94444 3.77667 4.27667 2.44445 5.96333 1.46667C7.65 0.488892 9.49555 3.8147e-06 11.5 3.8147e-06C13.5044 3.8147e-06 15.35 0.488892 17.0367 1.46667C18.7233 2.44445 20.0556 3.77667 21.0333 5.46334C22.0111 7.15 22.5 8.99556 22.5 11ZM11.8667 8.14C10.7911 8.58 8.66444 9.48445 5.48667 10.8533C4.94889 11.0978 4.66778 11.3056 4.64333 11.4767C4.61889 11.6478 4.68 11.77 4.82667 11.8433C4.97333 11.9167 5.24222 12.0267 5.63333 12.1733L5.85333 12.2467C6.63555 12.4911 7.21 12.6133 7.57667 12.6133C7.94333 12.6133 8.34667 12.4667 8.78667 12.1733C11.7689 10.1689 13.3089 9.15445 13.4067 9.13C13.5044 9.10556 13.5778 9.11778 13.6267 9.16667C13.6756 9.21556 13.6878 9.28889 13.6633 9.38667C13.6389 9.48445 12.82 10.2911 11.2067 11.8067L10.4 12.54C10.0578 12.8333 9.86222 13.09 9.81333 13.31C9.76444 13.53 9.96 13.7622 10.4 14.0067L13.26 15.9133C13.5533 16.1578 13.7978 16.3289 13.9933 16.4267C14.1889 16.5244 14.3844 16.5489 14.58 16.5C14.9711 16.5 15.24 16.1333 15.3867 15.4C15.5822 14.1778 15.8022 12.8333 16.0467 11.3667C16.34 9.55778 16.5356 8.26222 16.6333 7.48C16.6333 7.33334 16.6211 7.19889 16.5967 7.07667C16.5722 6.95445 16.5111 6.84445 16.4133 6.74667C16.3156 6.64889 16.1689 6.6 15.9733 6.6C15.7778 6.6 15.4233 6.69778 14.91 6.89334C14.3967 7.08889 13.3822 7.50445 11.8667 8.14Z" fill="white"/>
</svg>
